<svg width="480" height="120" viewBox="0 0 480 120" fill="none" xmlns="http://www.w3.org/2000/svg">
<rect width="120" height="120" rx="30" fill="#F5C000"/>
<path d="M46.9707 25L47.2754 25.0039C53.5068 25.1619 58.5315 30.1599 58.7393 36.3789C60.6907 34.7955 63.1573 33.8222 65.8496 33.7539L66.1543 33.75H84.125V51.25H90.25V64.375C90.25 81.2887 76.5387 95 59.625 95C42.7113 95 29 81.2887 29 64.375V51.25H36V25H46.9707ZM43 32V49.5H51.75V36.7793C51.75 34.14 49.61 32 46.9707 32H43ZM66.1543 40.75C63.515 40.75 61.375 42.89 61.375 45.5293V49.5H77.125V40.75H66.1543Z" fill="white"/>
<path d="M476.95 45.248C478.372 45.248 479.34 46.69 478.801 48.0058L457.669 99.6199C457.361 100.371 456.63 100.862 455.818 100.862H453.653C452.232 100.862 451.264 99.4206 451.802 98.1048L457.817 83.4021C458.015 82.9175 458.015 82.3745 457.818 81.8897L444.001 48.0032C443.464 46.6877 444.432 45.248 445.853 45.248H448.476C449.302 45.248 450.043 45.7556 450.341 46.5256L459.838 71.0417C460.5 72.7487 462.917 72.7439 463.571 71.0344L472.952 46.5329C473.249 45.759 473.991 45.248 474.82 45.248H476.95Z" fill="#001F3F"/>
<path d="M398.387 64.016C398.387 60.152 399.169 56.771 400.733 53.873C402.297 50.929 404.436 48.652 407.15 47.042C409.91 45.432 412.969 44.627 416.327 44.627C419.639 44.627 422.514 45.34 424.952 46.766C425.627 47.1606 426.254 47.5834 426.834 48.0344C427.988 48.9325 430.403 48.126 430.403 46.6638C430.403 45.8818 431.037 45.248 431.819 45.248H434.751C435.856 45.248 436.751 46.1434 436.751 47.248V81.06C436.751 82.1645 435.856 83.06 434.751 83.06H431.864C431.057 83.06 430.403 82.4059 430.403 81.599C430.403 80.0957 427.952 79.2762 426.771 80.2063C426.168 80.6809 425.516 81.1261 424.814 81.542C422.376 82.968 419.524 83.681 416.258 83.681C412.9 83.681 409.864 82.853 407.15 81.197C404.436 79.541 402.297 77.218 400.733 74.228C399.169 71.238 398.387 67.834 398.387 64.016ZM430.403 64.085C430.403 61.233 429.828 58.749 428.678 56.633C427.528 54.517 425.964 52.907 423.986 51.803C422.054 50.653 419.915 50.078 417.569 50.078C415.223 50.078 413.084 50.63 411.152 51.734C409.22 52.838 407.679 54.448 406.529 56.564C405.379 58.68 404.804 61.164 404.804 64.016C404.804 66.914 405.379 69.444 406.529 71.606C407.679 73.722 409.22 75.355 411.152 76.505C413.084 77.609 415.223 78.161 417.569 78.161C419.915 78.161 422.054 77.609 423.986 76.505C425.964 75.355 427.528 73.722 428.678 71.606C429.828 69.444 430.403 66.937 430.403 64.085Z" fill="#001F3F"/>
<path d="M387.104 55.7752C386.086 56.6409 386.219 59.5892 387.259 60.428C388.731 61.578 389.881 63.004 390.709 64.706C391.583 66.408 392.02 68.225 392.02 70.157C392.02 72.595 391.399 74.803 390.157 76.781C388.915 78.713 387.098 80.254 384.706 81.404C382.36 82.508 379.577 83.06 376.357 83.06H360.417C359.312 83.06 358.417 82.1646 358.417 81.06V36.967C358.417 35.8625 359.312 34.967 360.417 34.967H375.667C378.933 34.967 381.716 35.519 384.016 36.623C386.316 37.681 388.041 39.13 389.191 40.97C390.341 42.81 390.916 44.88 390.916 47.18C390.916 50.032 390.134 52.401 388.57 54.287C388.125 54.8266 387.636 55.3227 387.104 55.7752ZM364.696 53.736C364.696 54.8406 365.591 55.736 366.696 55.736H375.253C378.197 55.736 380.474 55.046 382.084 53.666C383.694 52.286 384.499 50.377 384.499 47.939C384.499 45.501 383.694 43.592 382.084 42.212C380.474 40.832 378.151 40.142 375.115 40.142H366.696C365.591 40.142 364.696 41.0375 364.696 42.142V53.736ZM375.805 77.885C378.933 77.885 381.371 77.149 383.119 75.677C384.867 74.205 385.741 72.158 385.741 69.536C385.741 66.868 384.821 64.775 382.981 63.257C381.141 61.693 378.68 60.911 375.598 60.911H366.696C365.591 60.911 364.696 61.8065 364.696 62.911V75.885C364.696 76.9896 365.591 77.885 366.696 77.885H375.805Z" fill="#001F3F"/>
<path d="M346.831 32C347.936 32 348.831 32.8954 348.831 34V81.06C348.831 82.1646 347.936 83.06 346.831 83.06H339.032C337.928 83.06 337.032 82.1646 337.032 81.06V34C337.032 32.8954 337.928 32 339.032 32H346.831Z" fill="#001F3F"/>
<path d="M326.482 32C327.586 32 328.482 32.8954 328.482 34V81.06C328.482 82.1646 327.586 83.06 326.482 83.06H318.683C317.578 83.06 316.683 82.1646 316.683 81.06V34C316.683 32.8954 317.578 32 318.683 32H326.482Z" fill="#001F3F"/>
<path d="M310.458 63.1881C310.458 63.735 310.441 64.2932 310.407 64.8627C310.347 65.8768 309.484 66.6381 308.469 66.6381H285.708C284.543 66.6381 283.597 67.6413 283.902 68.7658C284.277 70.1517 284.918 71.2825 285.825 72.1581C287.205 73.4001 288.884 74.0211 290.862 74.0211C293.329 74.0211 295.166 73.1492 296.373 71.4055C296.817 70.7648 297.502 70.2951 298.281 70.2951H306.988C308.293 70.2951 309.251 71.5301 308.744 72.7324C308.08 74.3098 307.179 75.7744 306.042 77.1261C304.386 79.1501 302.293 80.7371 299.763 81.8871C297.233 83.0371 294.404 83.6121 291.276 83.6121C287.504 83.6121 284.146 82.8071 281.202 81.1971C278.258 79.5871 275.958 77.2871 274.302 74.2971C272.646 71.3071 271.818 67.8111 271.818 63.8091C271.818 59.8071 272.623 56.3111 274.233 53.3211C275.889 50.3311 278.189 48.0311 281.133 46.4211C284.077 44.8111 287.458 44.0061 291.276 44.0061C295.002 44.0061 298.314 44.7881 301.212 46.3521C304.11 47.9161 306.364 50.1471 307.974 53.0451C309.63 55.9431 310.458 59.3241 310.458 63.1881ZM296.383 60.0831C297.488 60.0831 298.425 59.1693 298.128 58.1055C297.814 56.9803 297.209 56.0295 296.313 55.2531C294.933 54.0571 293.208 53.4591 291.138 53.4591C289.16 53.4591 287.481 54.0341 286.101 55.1841C285.284 55.8884 284.657 56.7739 284.22 57.8405C283.755 58.9734 284.72 60.0831 285.944 60.0831H296.383Z" fill="#001F3F"/>
<path d="M251.352 83.6121C247.994 83.6121 245.004 83.0371 242.382 81.8871C239.76 80.7371 237.69 79.1731 236.172 77.1951C235.099 75.7644 234.359 74.2188 233.952 72.5583C233.676 71.4288 234.609 70.4331 235.772 70.4331H243.476C244.501 70.4331 245.308 71.2478 245.796 72.1492C246.109 72.729 246.558 73.238 247.143 73.6761C248.247 74.5041 249.604 74.9181 251.214 74.9181C252.686 74.9181 253.813 74.6421 254.595 74.0901C255.423 73.4921 255.837 72.7331 255.837 71.8131C255.837 70.7091 255.262 69.9041 254.112 69.3981C252.962 68.8461 251.099 68.2481 248.523 67.6041C245.763 66.9601 243.463 66.2931 241.623 65.6031C239.783 64.8671 238.196 63.7401 236.862 62.2221C235.528 60.6581 234.861 58.5651 234.861 55.9431C234.861 53.7351 235.459 51.7341 236.655 49.9401C237.897 48.1001 239.691 46.6511 242.037 45.5931C244.429 44.5351 247.258 44.0061 250.524 44.0061C255.354 44.0061 259.149 45.2021 261.909 47.5941C264.177 49.5278 265.664 51.9725 266.369 54.9283C266.644 56.0828 265.705 57.1161 264.518 57.1161H257.58C256.581 57.1161 255.785 56.3451 255.324 55.4589C255.019 54.872 254.592 54.3664 254.043 53.9421C253.077 53.1601 251.789 52.7691 250.179 52.7691C248.799 52.7691 247.741 53.0451 247.005 53.5971C246.269 54.1031 245.901 54.8161 245.901 55.7361C245.901 56.8401 246.476 57.6681 247.626 58.2201C248.822 58.7721 250.662 59.3241 253.146 59.8761C255.998 60.6121 258.321 61.3481 260.115 62.0841C261.909 62.7741 263.473 63.9241 264.807 65.5341C266.187 67.0981 266.9 69.2141 266.946 71.8821C266.946 74.1361 266.302 76.1601 265.014 77.9541C263.772 79.7021 261.955 81.0821 259.563 82.0941C257.217 83.1061 254.48 83.6121 251.352 83.6121Z" fill="#001F3F"/>
<path d="M200.656 45.7933C200.656 47.027 202.518 47.6743 203.492 46.9174C204.083 46.4585 204.724 46.0401 205.417 45.6621C207.441 44.5581 209.81 44.0061 212.524 44.0061C215.698 44.0061 218.573 44.8111 221.149 46.4211C223.725 48.0311 225.749 50.3311 227.221 53.3211C228.739 56.3111 229.498 59.7841 229.498 63.7401C229.498 67.6961 228.739 71.1921 227.221 74.2281C225.749 77.2181 223.725 79.5411 221.149 81.1971C218.573 82.8071 215.698 83.6121 212.524 83.6121C209.856 83.6121 207.487 83.0601 205.417 81.9561C203.73 81.0358 200.656 82.2225 200.656 84.1444V99.4141C200.656 100.519 199.761 101.414 198.656 101.414H190.857C189.753 101.414 188.857 100.519 188.857 99.4141V46.5581C188.857 45.4535 189.753 44.5581 190.857 44.5581H199.421C200.103 44.5581 200.656 45.1111 200.656 45.7933ZM217.492 63.7401C217.492 60.7961 216.664 58.4961 215.008 56.8401C213.398 55.1381 211.397 54.2871 209.005 54.2871C206.659 54.2871 204.658 55.1381 203.002 56.8401C201.392 58.5421 200.587 60.8651 200.587 63.8091C200.587 66.7531 201.392 69.0761 203.002 70.7781C204.658 72.4801 206.659 73.3311 209.005 73.3311C211.351 73.3311 213.352 72.4801 215.008 70.7781C216.664 69.0301 217.492 66.6841 217.492 63.7401Z" fill="#001F3F"/>
<path d="M149.799 34.6221C150.904 34.6221 151.799 35.5175 151.799 36.6221V63.6021C151.799 66.5001 152.512 68.7311 153.938 70.2951C155.364 71.8591 157.457 72.6411 160.217 72.6411C162.977 72.6411 165.093 71.8591 166.565 70.2951C168.037 68.7311 168.773 66.5001 168.773 63.6021V36.6221C168.773 35.5175 169.668 34.6221 170.773 34.6221H178.572C179.677 34.6221 180.572 35.5175 180.572 36.6221V63.5331C180.572 67.8571 179.652 71.5141 177.812 74.5041C175.972 77.4941 173.488 79.7481 170.36 81.2661C167.278 82.7841 163.828 83.5431 160.01 83.5431C156.192 83.5431 152.765 82.8071 149.729 81.3351C146.739 79.8171 144.37 77.5631 142.622 74.5731C140.874 71.5371 140 67.8571 140 63.5331V36.6221C140 35.5175 140.895 34.6221 142 34.6221H149.799Z" fill="#001F3F"/>
</svg>
