<svg width="120" height="120" viewBox="0 0 120 120" fill="none" xmlns="http://www.w3.org/2000/svg">
<rect width="120" height="120" rx="30" fill="#b88600"/>
<path d="M46.9707 25L47.2754 25.0039C53.5068 25.1619 58.5315 30.1599 58.7393 36.3789C60.6907 34.7955 63.1573 33.8222 65.8496 33.7539L66.1543 33.75H84.125V51.25H90.25V64.375C90.25 81.2887 76.5387 95 59.625 95C42.7113 95 29 81.2887 29 64.375V51.25H36V25H46.9707ZM43 32V49.5H51.75V36.7793C51.75 34.14 49.61 32 46.9707 32H43ZM66.1543 40.75C63.515 40.75 61.375 42.89 61.375 45.5293V49.5H77.125V40.75H66.1543Z" fill="white"/>
</svg>
